font.ufo
<glyph name="X" format="1">
	<unicode hex="0058"/>
	<advance width="657"/>
	<outline>
		<contour>
			<point x="20" y="0" type="line"/>
			<point x="216" y="0" type="line"/>
			<point x="216" y="34" type="line"/>
			<point x="131" y="49" type="line"/>
			<point x="105" y="50" type="line"/>
			<point x="20" y="35" type="line"/>
		</contour>
		<contour>
			<point x="8" y="617" type="line"/>
			<point x="147" y="602" type="line"/>
			<point x="209" y="602" type="line"/>
			<point x="355" y="617" type="line"/>
			<point x="355" y="652" type="line"/>
			<point x="8" y="652" type="line"/>
		</contour>
		<contour>
			<point x="60" y="0" type="line"/>
			<point x="122" y="0" type="line"/>
			<point x="315" y="344" type="line"/>
			<point x="288" y="355" type="line"/>
		</contour>
		<contour>
			<point x="386" y="0" type="line"/>
			<point x="599" y="0" type="line"/>
			<point x="266" y="652" type="line"/>
			<point x="53" y="652" type="line"/>
		</contour>
		<contour>
			<point x="332" y="356" type="line"/>
			<point x="362" y="349" type="line"/>
			<point x="557" y="652" type="line"/>
			<point x="499" y="652" type="line"/>
		</contour>
		<contour>
			<point x="294" y="0" type="line"/>
			<point x="643" y="0" type="line"/>
			<point x="643" y="35" type="line"/>
			<point x="500" y="50" type="line"/>
			<point x="445" y="50" type="line"/>
			<point x="294" y="35" type="line"/>
		</contour>
		<contour>
			<point x="410" y="617" type="line"/>
			<point x="492" y="605" type="line"/>
			<point x="519" y="605" type="line"/>
			<point x="611" y="617" type="line"/>
			<point x="611" y="652" type="line"/>
			<point x="410" y="652" type="line"/>
		</contour>
	</outline>
</glyph>
<glyph name="macron" format="1">
	<unicode hex="00AF"/>
	<advance width="400"/>
	<outline>
		<contour>
			<point x="29" y="588" type="line"/>
			<point x="371" y="588" type="line"/>
			<point x="371" y="678" type="line"/>
			<point x="29" y="678" type="line"/>
		</contour>
	</outline>
</glyph>
<glyph name="cedilla" format="1">
	<unicode hex="00B8"/>
	<advance width="400"/>
	<outline>
		<contour>
			<point x="136" y="-90" type="line"/>
			<point x="177" y="-95"/>
			<point x="197" y="-110"/>
			<point x="197" y="-139" type="curve" smooth="yes"/>
			<point x="197" y="-169"/>
			<point x="180" y="-187"/>
			<point x="147" y="-187" type="curve" smooth="yes"/>
			<point x="128" y="-187"/>
			<point x="113" y="-185"/>
			<point x="92" y="-179" type="curve"/>
			<point x="83" y="-212" type="line"/>
			<point x="109" y="-222"/>
			<point x="135" y="-227"/>
			<point x="169" y="-227" type="curve" smooth="yes"/>
			<point x="256" y="-227"/>
			<point x="301" y="-185"/>
			<point x="301" y="-140" type="curve" smooth="yes"/>
			<point x="301" y="-102"/>
			<point x="266" y="-62"/>
			<point x="156" y="-62" type="curve"/>
			<point x="175" y="-71" type="line"/>
			<point x="184" y="5" type="line"/>
			<point x="151" y="5" type="line"/>
		</contour>
	</outline>
</glyph>
<glyph name="onequarter" format="1">
	<unicode hex="00BC"/>
	<advance width="880"/>
	<outline>
		<contour>
			<point x="474" y="97" type="line"/>
			<point x="793" y="97" type="line"/>
			<point x="793" y="152" type="line"/>
			<point x="501" y="152" type="line"/>
			<point x="501" y="139" type="line"/>
			<point x="643" y="345" type="line"/>
			<point x="633" y="345" type="line"/>
			<point x="633" y="0" type="line"/>
			<point x="736" y="0" type="line"/>
			<point x="736" y="391" type="line"/>
			<point x="654" y="391" type="line"/>
			<point x="474" y="142" type="line"/>
		</contour>
		<component base="fraction" xOffset="395"/>
		<component base="one.sups" xOffset="-5" yOffset="-163"/>
	</outline>
</glyph>
<glyph name="threequarters" format="1">
	<unicode hex="00BE"/>
	<advance width="880"/>
	<outline>
		<contour>
			<point x="486" y="97" type="line"/>
			<point x="805" y="97" type="line"/>
			<point x="805" y="152" type="line"/>
			<point x="513" y="152" type="line"/>
			<point x="513" y="139" type="line"/>
			<point x="655" y="345" type="line"/>
			<point x="645" y="345" type="line"/>
			<point x="645" y="0" type="line"/>
			<point x="748" y="0" type="line"/>
			<point x="748" y="391" type="line"/>
			<point x="666" y="391" type="line"/>
			<point x="486" y="142" type="line"/>
		</contour>
		<component base="fraction" xOffset="396" yOffset="-10"/>
		<component base="three.sups" xOffset="34" yOffset="-163"/>
	</outline>
</glyph>
<glyph name="Agrave" format="1">
	<unicode hex="00C0"/>
	<advance width="680"/>
	<outline>
		<contour>
			<point x="420" y="719" type="line"/>
			<point x="382" y="760"/>
			<point x="343" y="800"/>
			<point x="308" y="838" type="curve" smooth="yes"/>
			<point x="276" y="871"/>
			<point x="256" y="881"/>
			<point x="230" y="881" type="curve" smooth="yes"/>
			<point x="194" y="881"/>
			<point x="169" y="851"/>
			<point x="169" y="823" type="curve" smooth="yes"/>
			<point x="169" y="801"/>
			<point x="182" y="770"/>
			<point x="235" y="751" type="curve" smooth="yes"/>
			<point x="292" y="731"/>
			<point x="347" y="712"/>
			<point x="403" y="694" type="curve"/>
		</contour>
		<component base="A"/>
	</outline>
</glyph>
<glyph name="Aacute" format="1">
	<unicode hex="00C1"/>
	<advance width="680"/>
	<outline>
		<contour>
			<point x="257" y="718" type="curve"/>
			<point x="274" y="693" type="line"/>
			<point x="331" y="712"/>
			<point x="387" y="732"/>
			<point x="444" y="753" type="curve" smooth="yes"/>
			<point x="496" y="772"/>
			<point x="507" y="804"/>
			<point x="507" y="823" type="curve" smooth="yes"/>
			<point x="507" y="851"/>
			<point x="482" y="881"/>
			<point x="446" y="881" type="curve" smooth="yes"/>
			<point x="420" y="881"/>
			<point x="397" y="870"/>
			<point x="366" y="836" type="curve" smooth="yes"/>
			<point x="332" y="799"/>
			<point x="294" y="759"/>
		</contour>
		<component base="A"/>
	</outline>
</glyph>
<glyph name="Adieresis" format="1">
	<unicode hex="00C4"/>
	<advance width="680"/>
	<outline>
		<contour>
			<point x="218" y="700" type="curve" smooth="yes"/>
			<point x="261" y="700"/>
			<point x="298" y="727"/>
			<point x="298" y="775" type="curve" smooth="yes"/>
			<point x="298" y="823"/>
			<point x="261" y="850"/>
			<point x="218" y="850" type="curve" smooth="yes"/>
			<point x="177" y="850"/>
			<point x="138" y="823"/>
			<point x="138" y="775" type="curve" smooth="yes"/>
			<point x="138" y="727"/>
			<point x="177" y="700"/>
		</contour>
		<contour>
			<point x="478" y="700" type="curve" smooth="yes"/>
			<point x="521" y="700"/>
			<point x="558" y="727"/>
			<point x="558" y="775" type="curve" smooth="yes"/>
			<point x="558" y="823"/>
			<point x="521" y="850"/>
			<point x="478" y="850" type="curve" smooth="yes"/>
			<point x="437" y="850"/>
			<point x="398" y="823"/>
			<point x="398" y="775" type="curve" smooth="yes"/>
			<point x="398" y="727"/>
			<point x="437" y="700"/>
		</contour>
		<component base="A"/>
	</outline>
</glyph>
<glyph name="Aring" format="1">
	<unicode hex="00C5"/>
	<advance width="680"/>
	<outline>
		<contour>
			<point x="348" y="693" type="curve" smooth="yes"/>
			<point x="409" y="693"/>
			<point x="454" y="730"/>
			<point x="454" y="794" type="curve" smooth="yes"/>
			<point x="454" y="857"/>
			<point x="409" y="895"/>
			<point x="348" y="895" type="curve" smooth="yes"/>
			<point x="287" y="895"/>
			<point x="242" y="855"/>
			<point x="242" y="794" type="curve" smooth="yes"/>
			<point x="242" y="732"/>
			<point x="287" y="693"/>
		</contour>
		<contour>
			<point x="348" y="730" type="curve" smooth="yes"/>
			<point x="311" y="730"/>
			<point x="287" y="754"/>
			<point x="287" y="794" type="curve" smooth="yes"/>
			<point x="287" y="832"/>
			<point x="311" y="858"/>
			<point x="348" y="858" type="curve" smooth="yes"/>
			<point x="385" y="858"/>
			<point x="409" y="832"/>
			<point x="409" y="794" type="curve" smooth="yes"/>
			<point x="409" y="754"/>
			<point x="385" y="730"/>
		</contour>
		<component base="A"/>
	</outline>
</glyph>
<glyph name="Ccedilla" format="1">
	<unicode hex="00C7"/>
	<advance width="618"/>
	<outline>
		<contour>
			<point x="328" y="-90" type="line"/>
			<point x="369" y="-95"/>
			<point x="389" y="-110"/>
			<point x="389" y="-139" type="curve" smooth="yes"/>
			<point x="389" y="-169"/>
			<point x="372" y="-187"/>
			<point x="339" y="-187" type="curve" smooth="yes"/>
			<point x="320" y="-187"/>
			<point x="305" y="-185"/>
			<point x="284" y="-179" type="curve"/>
			<point x="275" y="-212" type="line"/>
			<point x="301" y="-222"/>
			<point x="327" y="-227"/>
			<point x="361" y="-227" type="curve" smooth="yes"/>
			<point x="448" y="-227"/>
			<point x="493" y="-185"/>
			<point x="493" y="-140" type="curve" smooth="yes"/>
			<point x="493" y="-102"/>
			<point x="458" y="-62"/>
			<point x="348" y="-62" type="curve"/>
			<point x="367" y="-71" type="line"/>
			<point x="376" y="5" type="line"/>
			<point x="343" y="5" type="line"/>
		</contour>
		<component base="C"/>
	</outline>
</glyph>
<glyph name="Egrave" format="1">
	<unicode hex="00C8"/>
	<advance width="591"/>
	<outline>
		<contour>
			<point x="387" y="719" type="line"/>
			<point x="349" y="760"/>
			<point x="310" y="800"/>
			<point x="275" y="838" type="curve" smooth="yes"/>
			<point x="243" y="871"/>
			<point x="223" y="881"/>
			<point x="197" y="881" type="curve" smooth="yes"/>
			<point x="161" y="881"/>
			<point x="136" y="851"/>
			<point x="136" y="823" type="curve" smooth="yes"/>
			<point x="136" y="801"/>
			<point x="149" y="770"/>
			<point x="202" y="751" type="curve" smooth="yes"/>
			<point x="259" y="731"/>
			<point x="314" y="712"/>
			<point x="370" y="694" type="curve"/>
		</contour>
		<component base="E"/>
	</outline>
</glyph>
<glyph name="Eacute" format="1">
	<unicode hex="00C9"/>
	<advance width="591"/>
	<outline>
		<contour>
			<point x="214" y="718" type="curve"/>
			<point x="231" y="693" type="line"/>
			<point x="288" y="712"/>
			<point x="344" y="732"/>
			<point x="401" y="753" type="curve" smooth="yes"/>
			<point x="453" y="772"/>
			<point x="464" y="804"/>
			<point x="464" y="823" type="curve" smooth="yes"/>
			<point x="464" y="851"/>
			<point x="439" y="881"/>
			<point x="403" y="881" type="curve" smooth="yes"/>
			<point x="377" y="881"/>
			<point x="354" y="870"/>
			<point x="323" y="836" type="curve" smooth="yes"/>
			<point x="289" y="799"/>
			<point x="251" y="759"/>
		</contour>
		<component base="E"/>
	</outline>
</glyph>
<glyph name="Ecircumflex" format="1">
	<unicode hex="00CA"/>
	<advance width="591"/>
	<outline>
		<contour>
			<point x="356" y="882" type="line"/>
			<point x="274" y="882" type="line"/>
			<point x="125" y="706" type="line"/>
			<point x="144" y="683" type="line"/>
			<point x="365" y="792" type="line"/>
			<point x="265" y="792" type="line"/>
			<point x="486" y="683" type="line"/>
			<point x="505" y="706" type="line"/>
		</contour>
		<component base="E"/>
	</outline>
</glyph>
<glyph name="Igrave" format="1">
	<unicode hex="00CC"/>
	<advance width="394"/>
	<outline>
		<contour>
			<point x="289" y="719" type="line"/>
			<point x="251" y="760"/>
			<point x="212" y="800"/>
			<point x="177" y="838" type="curve" smooth="yes"/>
			<point x="145" y="871"/>
			<point x="125" y="881"/>
			<point x="99" y="881" type="curve" smooth="yes"/>
			<point x="63" y="881"/>
			<point x="38" y="851"/>
			<point x="38" y="823" type="curve" smooth="yes"/>
			<point x="38" y="801"/>
			<point x="51" y="770"/>
			<point x="104" y="751" type="curve" smooth="yes"/>
			<point x="161" y="731"/>
			<point x="216" y="712"/>
			<point x="272" y="694" type="curve"/>
		</contour>
		<component base="I"/>
	</outline>
</glyph>
<glyph name="Icircumflex" format="1">
	<unicode hex="00CE"/>
	<advance width="394"/>
	<outline>
		<contour>
			<point x="238" y="882" type="line"/>
			<point x="156" y="882" type="line"/>
			<point x="7" y="706" type="line"/>
			<point x="26" y="683" type="line"/>
			<point x="247" y="792" type="line"/>
			<point x="147" y="792" type="line"/>
			<point x="368" y="683" type="line"/>
			<point x="387" y="706" type="line"/>
		</contour>
		<component base="I"/>
	</outline>
</glyph>
<glyph name="Oacute" format="1">
	<unicode hex="00D3"/>
	<advance width="700"/>
	<outline>
		<contour>
			<point x="259" y="722" type="curve"/>
			<point x="276" y="697" type="line"/>
			<point x="333" y="716"/>
			<point x="389" y="736"/>
			<point x="446" y="757" type="curve" smooth="yes"/>
			<point x="498" y="776"/>
			<point x="509" y="808"/>
			<point x="509" y="827" type="curve" smooth="yes"/>
			<point x="509" y="855"/>
			<point x="484" y="885"/>
			<point x="448" y="885" type="curve" smooth="yes"/>
			<point x="422" y="885"/>
			<point x="399" y="874"/>
			<point x="368" y="840" type="curve" smooth="yes"/>
			<point x="334" y="803"/>
			<point x="296" y="763"/>
		</contour>
		<component base="O"/>
	</outline>
</glyph>
<glyph name="Ocircumflex" format="1">
	<unicode hex="00D4"/>
	<advance width="700"/>
	<outline>
		<contour>
			<point x="391" y="882" type="line"/>
			<point x="309" y="882" type="line"/>
			<point x="160" y="706" type="line"/>
			<point x="179" y="683" type="line"/>
			<point x="400" y="792" type="line"/>
			<point x="300" y="792" type="line"/>
			<point x="521" y="683" type="line"/>
			<point x="540" y="706" type="line"/>
		</contour>
		<component base="O"/>
	</outline>
</glyph>
<glyph name="Otilde" format="1">
	<unicode hex="00D5"/>
	<advance width="700"/>
	<outline>
		<contour>
			<point x="171" y="712" type="curve"/>
			<point x="197" y="702" type="line"/>
			<point x="210" y="736"/>
			<point x="234" y="756"/>
			<point x="264" y="756" type="curve" smooth="yes"/>
			<point x="293" y="756"/>
			<point x="318" y="738"/>
			<point x="340" y="724" type="curve" smooth="yes"/>
			<point x="360" y="712"/>
			<point x="382" y="700"/>
			<point x="412" y="700" type="curve" smooth="yes"/>
			<point x="473" y="700"/>
			<point x="517" y="750"/>
			<point x="529" y="850" type="curve"/>
			<point x="503" y="860" type="line"/>
			<point x="490" y="826"/>
			<point x="466" y="806"/>
			<point x="436" y="806" type="curve" smooth="yes"/>
			<point x="407" y="806"/>
			<point x="382" y="824"/>
			<point x="360" y="838" type="curve" smooth="yes"/>
			<point x="340" y="850"/>
			<point x="318" y="862"/>
			<point x="289" y="862" type="curve" smooth="yes"/>
			<point x="229" y="862"/>
			<point x="183" y="809"/>
		</contour>
		<component base="O"/>
	</outline>
</glyph>
<glyph name="Ugrave" format="1">
	<unicode hex="00D9"/>
	<advance width="732"/>
	<outline>
		<contour>
			<point x="498" y="719" type="line"/>
			<point x="460" y="760"/>
			<point x="421" y="800"/>
			<point x="386" y="838" type="curve" smooth="yes"/>
			<point x="354" y="871"/>
			<point x="334" y="881"/>
			<point x="308" y="881" type="curve" smooth="yes"/>
			<point x="272" y="881"/>
			<point x="247" y="851"/>
			<point x="247" y="823" type="curve" smooth="yes"/>
			<point x="247" y="801"/>
			<point x="260" y="770"/>
			<point x="313" y="751" type="curve" smooth="yes"/>
			<point x="370" y="731"/>
			<point x="425" y="712"/>
			<point x="481" y="694" type="curve"/>
		</contour>
		<component base="U"/>
	</outline>
</glyph>
<glyph name="Uacute" format="1">
	<unicode hex="00DA"/>
	<advance width="732"/>
	<outline>
		<contour>
			<point x="305" y="718" type="curve"/>
			<point x="322" y="693" type="line"/>
			<point x="379" y="712"/>
			<point x="435" y="732"/>
			<point x="492" y="753" type="curve" smooth="yes"/>
			<point x="544" y="772"/>
			<point x="555" y="804"/>
			<point x="555" y="823" type="curve" smooth="yes"/>
			<point x="555" y="851"/>
			<point x="530" y="881"/>
			<point x="494" y="881" type="curve" smooth="yes"/>
			<point x="468" y="881"/>
			<point x="445" y="870"/>
			<point x="414" y="836" type="curve" smooth="yes"/>
			<point x="380" y="799"/>
			<point x="342" y="759"/>
		</contour>
		<component base="U"/>
	</outline>
</glyph>
<glyph name="Ucircumflex" format="1">
	<unicode hex="00DB"/>
	<advance width="732"/>
	<outline>
		<contour>
			<point x="457" y="882" type="line"/>
			<point x="375" y="882" type="line"/>
			<point x="226" y="706" type="line"/>
			<point x="245" y="683" type="line"/>
			<point x="466" y="792" type="line"/>
			<point x="366" y="792" type="line"/>
			<point x="587" y="683" type="line"/>
			<point x="606" y="706" type="line"/>
		</contour>
		<component base="U"/>
	</outline>
</glyph>
<glyph name="Yacute" format="1">
	<unicode hex="00DD"/>
	<advance width="621"/>
	<outline>
		<contour>
			<point x="282" y="718" type="curve"/>
			<point x="299" y="693" type="line"/>
			<point x="356" y="712"/>
			<point x="412" y="732"/>
			<point x="469" y="753" type="curve" smooth="yes"/>
			<point x="521" y="772"/>
			<point x="532" y="804"/>
			<point x="532" y="823" type="curve" smooth="yes"/>
			<point x="532" y="851"/>
			<point x="507" y="881"/>
			<point x="471" y="881" type="curve" smooth="yes"/>
			<point x="445" y="881"/>
			<point x="422" y="870"/>
			<point x="391" y="836" type="curve" smooth="yes"/>
			<point x="357" y="799"/>
			<point x="319" y="759"/>
		</contour>
		<component base="Y"/>
	</outline>
</glyph>
<glyph name="agrave" format="1">
	<unicode hex="00E0"/>
	<advance width="540"/>
	<outline>
		<contour>
			<point x="340" y="580" type="line"/>
			<point x="328" y="605"/>
			<point x="316" y="630"/>
			<point x="277" y="712" type="curve" smooth="yes"/>
			<point x="252" y="763"/>
			<point x="224" y="784"/>
			<point x="186" y="784" type="curve" smooth="yes"/>
			<point x="156" y="784"/>
			<point x="125" y="760"/>
			<point x="125" y="721" type="curve" smooth="yes"/>
			<point x="125" y="686"/>
			<point x="156" y="654"/>
			<point x="204" y="626" type="curve" smooth="yes"/>
			<point x="274" y="584"/>
			<point x="296" y="573"/>
			<point x="317" y="561" type="curve"/>
		</contour>
		<component base="a"/>
	</outline>
</glyph>
<glyph name="aacute" format="1">
	<unicode hex="00E1"/>
	<advance width="540"/>
	<outline>
		<contour>
			<point x="200" y="580" type="curve"/>
			<point x="223" y="561" type="line"/>
			<point x="244" y="573"/>
			<point x="266" y="584"/>
			<point x="339" y="625" type="curve" smooth="yes"/>
			<point x="389" y="652"/>
			<point x="415" y="686"/>
			<point x="415" y="721" type="curve" smooth="yes"/>
			<point x="415" y="760"/>
			<point x="384" y="784"/>
			<point x="354" y="784" type="curve" smooth="yes"/>
			<point x="316" y="784"/>
			<point x="291" y="761"/>
			<point x="265" y="711" type="curve" smooth="yes"/>
			<point x="223" y="631"/>
			<point x="211" y="606"/>
		</contour>
		<component base="a"/>
	</outline>
</glyph>
<glyph name="acircumflex" format="1">
	<unicode hex="00E2"/>
	<advance width="540"/>
	<outline>
		<contour>
			<point x="427" y="553" type="line"/>
			<point x="449" y="575" type="line"/>
			<point x="318" y="757" type="line"/>
			<point x="242" y="757" type="line"/>
			<point x="111" y="575" type="line"/>
			<point x="133" y="553" type="line"/>
			<point x="330" y="679" type="line"/>
			<point x="230" y="679" type="line"/>
		</contour>
		<component base="a"/>
	</outline>
</glyph>
<glyph name="atilde" format="1">
	<unicode hex="00E3"/>
	<advance width="540"/>
	<outline>
		<contour>
			<point x="91" y="582" type="curve"/>
			<point x="117" y="572" type="line"/>
			<point x="130" y="606"/>
			<point x="154" y="626"/>
			<point x="184" y="626" type="curve" smooth="yes"/>
			<point x="213" y="626"/>
			<point x="238" y="608"/>
			<point x="260" y="594" type="curve" smooth="yes"/>
			<point x="280" y="582"/>
			<point x="302" y="570"/>
			<point x="332" y="570" type="curve" smooth="yes"/>
			<point x="393" y="570"/>
			<point x="437" y="620"/>
			<point x="449" y="720" type="curve"/>
			<point x="423" y="730" type="line"/>
			<point x="410" y="696"/>
			<point x="386" y="676"/>
			<point x="356" y="676" type="curve" smooth="yes"/>
			<point x="327" y="676"/>
			<point x="302" y="694"/>
			<point x="280" y="708" type="curve" smooth="yes"/>
			<point x="260" y="720"/>
			<point x="238" y="732"/>
			<point x="209" y="732" type="curve" smooth="yes"/>
			<point x="149" y="732"/>
			<point x="103" y="679"/>
		</contour>
		<component base="a"/>
	</outline>
</glyph>
<glyph name="aring" format="1">
	<unicode hex="00E5"/>
	<advance width="540"/>
	<outline>
		<contour>
			<point x="270" y="597" type="curve" smooth="yes"/>
			<point x="220" y="597"/>
			<point x="194" y="637"/>
			<point x="194" y="674" type="curve" smooth="yes"/>
			<point x="194" y="714"/>
			<point x="220" y="751"/>
			<point x="270" y="751" type="curve" smooth="yes"/>
			<point x="320" y="751"/>
			<point x="346" y="714"/>
			<point x="346" y="674" type="curve" smooth="yes"/>
			<point x="346" y="637"/>
			<point x="320" y="597"/>
		</contour>
		<contour>
			<point x="270" y="554" type="curve" smooth="yes"/>
			<point x="342" y="554"/>
			<point x="397" y="598"/>
			<point x="397" y="674" type="curve" smooth="yes"/>
			<point x="397" y="750"/>
			<point x="342" y="794"/>
			<point x="270" y="794" type="curve" smooth="yes"/>
			<point x="198" y="794"/>
			<point x="143" y="747"/>
			<point x="143" y="674" type="curve" smooth="yes"/>
			<point x="143" y="601"/>
			<point x="198" y="554"/>
		</contour>
		<component base="a"/>
	</outline>
</glyph>
<glyph name="ccedilla" format="1">
	<unicode hex="00E7"/>
	<advance width="523"/>
	<outline>
		<contour>
			<point x="235" y="-90" type="line"/>
			<point x="276" y="-95"/>
			<point x="296" y="-110"/>
			<point x="296" y="-139" type="curve" smooth="yes"/>
			<point x="296" y="-169"/>
			<point x="279" y="-187"/>
			<point x="246" y="-187" type="curve" smooth="yes"/>
			<point x="227" y="-187"/>
			<point x="212" y="-185"/>
			<point x="191" y="-179" type="curve"/>
			<point x="182" y="-212" type="line"/>
			<point x="208" y="-222"/>
			<point x="234" y="-227"/>
			<point x="268" y="-227" type="curve" smooth="yes"/>
			<point x="355" y="-227"/>
			<point x="400" y="-185"/>
			<point x="400" y="-140" type="curve" smooth="yes"/>
			<point x="400" y="-102"/>
			<point x="365" y="-62"/>
			<point x="255" y="-62" type="curve"/>
			<point x="274" y="-71" type="line"/>
			<point x="283" y="5" type="line"/>
			<point x="250" y="5" type="line"/>
		</contour>
		<component base="c"/>
	</outline>
</glyph>
<glyph name="egrave" format="1">
	<unicode hex="00E8"/>
	<advance width="526"/>
	<outline>
		<contour>
			<point x="363" y="580" type="line"/>
			<point x="351" y="605"/>
			<point x="339" y="630"/>
			<point x="300" y="712" type="curve" smooth="yes"/>
			<point x="275" y="763"/>
			<point x="247" y="784"/>
			<point x="209" y="784" type="curve" smooth="yes"/>
			<point x="179" y="784"/>
			<point x="148" y="760"/>
			<point x="148" y="721" type="curve" smooth="yes"/>
			<point x="148" y="686"/>
			<point x="179" y="654"/>
			<point x="227" y="626" type="curve" smooth="yes"/>
			<point x="297" y="584"/>
			<point x="319" y="573"/>
			<point x="340" y="561" type="curve"/>
		</contour>
		<component base="e"/>
	</outline>
</glyph>
<glyph name="eacute" format="1">
	<unicode hex="00E9"/>
	<advance width="526"/>
	<outline>
		<contour>
			<point x="213" y="580" type="curve"/>
			<point x="236" y="561" type="line"/>
			<point x="257" y="573"/>
			<point x="279" y="584"/>
			<point x="352" y="625" type="curve" smooth="yes"/>
			<point x="402" y="652"/>
			<point x="428" y="686"/>
			<point x="428" y="721" type="curve" smooth="yes"/>
			<point x="428" y="760"/>
			<point x="397" y="784"/>
			<point x="367" y="784" type="curve" smooth="yes"/>
			<point x="329" y="784"/>
			<point x="304" y="761"/>
			<point x="278" y="711" type="curve" smooth="yes"/>
			<point x="236" y="631"/>
			<point x="224" y="606"/>
		</contour>
		<component base="e"/>
	</outline>
</glyph>
<glyph name="igrave" format="1">
	<unicode hex="00EC"/>
	<advance width="324"/>
	<outline>
		<contour>
			<point x="242" y="580" type="line"/>
			<point x="230" y="605"/>
			<point x="218" y="630"/>
			<point x="179" y="712" type="curve" smooth="yes"/>
			<point x="154" y="763"/>
			<point x="126" y="784"/>
			<point x="88" y="784" type="curve" smooth="yes"/>
			<point x="58" y="784"/>
			<point x="27" y="760"/>
			<point x="27" y="721" type="curve" smooth="yes"/>
			<point x="27" y="686"/>
			<point x="58" y="654"/>
			<point x="106" y="626" type="curve" smooth="yes"/>
			<point x="176" y="584"/>
			<point x="198" y="573"/>
			<point x="219" y="561" type="curve"/>
		</contour>
		<component base="dotlessi"/>
	</outline>
</glyph>
<glyph name="icircumflex" format="1">
	<unicode hex="00EE"/>
	<advance width="324"/>
	<outline>
		<contour>
			<point x="319" y="553" type="line"/>
			<point x="341" y="575" type="line"/>
			<point x="210" y="757" type="line"/>
			<point x="134" y="757" type="line"/>
			<point x="3" y="575" type="line"/>
			<point x="25" y="553" type="line"/>
			<point x="222" y="679" type="line"/>
			<point x="122" y="679" type="line"/>
		</contour>
		<component base="dotlessi"/>
	</outline>
</glyph>
<glyph name="idieresis" format="1">
	<unicode hex="00EF"/>
	<advance width="324"/>
	<outline>
		<contour>
			<point x="298" y="567" type="curve" smooth="yes"/>
			<point x="343" y="567"/>
			<point x="382" y="595"/>
			<point x="382" y="646" type="curve" smooth="yes"/>
			<point x="382" y="696"/>
			<point x="343" y="725"/>
			<point x="298" y="725" type="curve" smooth="yes"/>
			<point x="255" y="725"/>
			<point x="214" y="696"/>
			<point x="214" y="646" type="curve" smooth="yes"/>
			<point x="214" y="595"/>
			<point x="255" y="567"/>
		</contour>
		<contour>
			<point x="46" y="567" type="curve" smooth="yes"/>
			<point x="91" y="567"/>
			<point x="130" y="595"/>
			<point x="130" y="646" type="curve" smooth="yes"/>
			<point x="130" y="696"/>
			<point x="91" y="725"/>
			<point x="46" y="725" type="curve" smooth="yes"/>
			<point x="3" y="725"/>
			<point x="-38" y="696"/>
			<point x="-38" y="646" type="curve" smooth="yes"/>
			<point x="-38" y="595"/>
			<point x="3" y="567"/>
		</contour>
		<component base="dotlessi"/>
	</outline>
</glyph>
<glyph name="ograve" format="1">
	<unicode hex="00F2"/>
	<advance width="572"/>
	<outline>
		<contour>
			<point x="356" y="580" type="line"/>
			<point x="344" y="605"/>
			<point x="332" y="630"/>
			<point x="293" y="712" type="curve" smooth="yes"/>
			<point x="268" y="763"/>
			<point x="240" y="784"/>
			<point x="202" y="784" type="curve" smooth="yes"/>
			<point x="172" y="784"/>
			<point x="141" y="760"/>
			<point x="141" y="721" type="curve" smooth="yes"/>
			<point x="141" y="686"/>
			<point x="172" y="654"/>
			<point x="220" y="626" type="curve" smooth="yes"/>
			<point x="290" y="584"/>
			<point x="312" y="573"/>
			<point x="333" y="561" type="curve"/>
		</contour>
		<component base="o"/>
	</outline>
</glyph>
<glyph name="ocircumflex" format="1">
	<unicode hex="00F4"/>
	<advance width="572"/>
	<outline>
		<contour>
			<point x="433" y="553" type="line"/>
			<point x="455" y="575" type="line"/>
			<point x="324" y="757" type="line"/>
			<point x="248" y="757" type="line"/>
			<point x="117" y="575" type="line"/>
			<point x="139" y="553" type="line"/>
			<point x="336" y="679" type="line"/>
			<point x="236" y="679" type="line"/>
		</contour>
		<component base="o"/>
	</outline>
</glyph>
<glyph name="otilde" format="1">
	<unicode hex="00F5"/>
	<advance width="572"/>
	<outline>
		<contour>
			<point x="107" y="582" type="curve"/>
			<point x="133" y="572" type="line"/>
			<point x="146" y="606"/>
			<point x="170" y="626"/>
			<point x="200" y="626" type="curve" smooth="yes"/>
			<point x="229" y="626"/>
			<point x="254" y="608"/>
			<point x="276" y="594" type="curve" smooth="yes"/>
			<point x="296" y="582"/>
			<point x="318" y="570"/>
			<point x="348" y="570" type="curve" smooth="yes"/>
			<point x="409" y="570"/>
			<point x="453" y="620"/>
			<point x="465" y="720" type="curve"/>
			<point x="439" y="730" type="line"/>
			<point x="426" y="696"/>
			<point x="402" y="676"/>
			<point x="372" y="676" type="curve" smooth="yes"/>
			<point x="343" y="676"/>
			<point x="318" y="694"/>
			<point x="296" y="708" type="curve" smooth="yes"/>
			<point x="276" y="720"/>
			<point x="254" y="732"/>
			<point x="225" y="732" type="curve" smooth="yes"/>
			<point x="165" y="732"/>
			<point x="119" y="679"/>
		</contour>
		<component base="o"/>
	</outline>
</glyph>
<glyph name="odieresis" format="1">
	<unicode hex="00F6"/>
	<advance width="572"/>
	<outline>
		<contour>
			<point x="412" y="567" type="curve" smooth="yes"/>
			<point x="457" y="567"/>
			<point x="496" y="595"/>
			<point x="496" y="646" type="curve" smooth="yes"/>
			<point x="496" y="696"/>
			<point x="457" y="725"/>
			<point x="412" y="725" type="curve" smooth="yes"/>
			<point x="369" y="725"/>
			<point x="328" y="696"/>
			<point x="328" y="646" type="curve" smooth="yes"/>
			<point x="328" y="595"/>
			<point x="369" y="567"/>
		</contour>
		<contour>
			<point x="160" y="567" type="curve" smooth="yes"/>
			<point x="205" y="567"/>
			<point x="244" y="595"/>
			<point x="244" y="646" type="curve" smooth="yes"/>
			<point x="244" y="696"/>
			<point x="205" y="725"/>
			<point x="160" y="725" type="curve" smooth="yes"/>
			<point x="117" y="725"/>
			<point x="76" y="696"/>
			<point x="76" y="646" type="curve" smooth="yes"/>
			<point x="76" y="595"/>
			<point x="117" y="567"/>
		</contour>
		<component base="o"/>
	</outline>
</glyph>
<glyph name="ugrave" format="1">
	<unicode hex="00F9"/>
	<advance width="617"/>
	<outline>
		<contour>
			<point x="388" y="580" type="line"/>
			<point x="376" y="605"/>
			<point x="364" y="630"/>
			<point x="325" y="712" type="curve" smooth="yes"/>
			<point x="300" y="763"/>
			<point x="272" y="784"/>
			<point x="234" y="784" type="curve" smooth="yes"/>
			<point x="204" y="784"/>
			<point x="173" y="760"/>
			<point x="173" y="721" type="curve" smooth="yes"/>
			<point x="173" y="686"/>
			<point x="204" y="654"/>
			<point x="252" y="626" type="curve" smooth="yes"/>
			<point x="322" y="584"/>
			<point x="344" y="573"/>
			<point x="365" y="561" type="curve"/>
		</contour>
		<component base="u"/>
	</outline>
</glyph>
<glyph name="uacute" format="1">
	<unicode hex="00FA"/>
	<advance width="617"/>
	<outline>
		<contour>
			<point x="228" y="580" type="curve"/>
			<point x="251" y="561" type="line"/>
			<point x="272" y="573"/>
			<point x="294" y="584"/>
			<point x="367" y="625" type="curve" smooth="yes"/>
			<point x="417" y="652"/>
			<point x="443" y="686"/>
			<point x="443" y="721" type="curve" smooth="yes"/>
			<point x="443" y="760"/>
			<point x="412" y="784"/>
			<point x="382" y="784" type="curve" smooth="yes"/>
			<point x="344" y="784"/>
			<point x="319" y="761"/>
			<point x="293" y="711" type="curve" smooth="yes"/>
			<point x="251" y="631"/>
			<point x="239" y="606"/>
		</contour>
		<component base="u"/>
	</outline>
</glyph>
<glyph name="ucircumflex" format="1">
	<unicode hex="00FB"/>
	<advance width="617"/>
	<outline>
		<contour>
			<point x="465" y="553" type="line"/>
			<point x="487" y="575" type="line"/>
			<point x="356" y="757" type="line"/>
			<point x="280" y="757" type="line"/>
			<point x="149" y="575" type="line"/>
			<point x="171" y="553" type="line"/>
			<point x="368" y="679" type="line"/>
			<point x="268" y="679" type="line"/>
		</contour>
		<component base="u"/>
	</outline>
</glyph>
<glyph name="yacute" format="1">
	<unicode hex="00FD"/>
	<advance width="543"/>
	<outline>
		<contour>
			<point x="271" y="580" type="curve"/>
			<point x="294" y="561" type="line"/>
			<point x="315" y="573"/>
			<point x="337" y="584"/>
			<point x="410" y="625" type="curve" smooth="yes"/>
			<point x="460" y="652"/>
			<point x="486" y="686"/>
			<point x="486" y="721" type="curve" smooth="yes"/>
			<point x="486" y="760"/>
			<point x="455" y="784"/>
			<point x="425" y="784" type="curve" smooth="yes"/>
			<point x="387" y="784"/>
			<point x="362" y="761"/>
			<point x="336" y="711" type="curve" smooth="yes"/>
			<point x="294" y="631"/>
			<point x="282" y="606"/>
		</contour>
		<component base="y"/>
	</outline>
</glyph>
<glyph name="ydieresis" format="1">
	<unicode hex="00FF"/>
	<advance width="543"/>
	<outline>
		<contour>
			<point x="455" y="567" type="curve" smooth="yes"/>
			<point x="500" y="567"/>
			<point x="539" y="595"/>
			<point x="539" y="646" type="curve" smooth="yes"/>
			<point x="539" y="696"/>
			<point x="500" y="725"/>
			<point x="455" y="725" type="curve" smooth="yes"/>
			<point x="412" y="725"/>
			<point x="371" y="696"/>
			<point x="371" y="646" type="curve" smooth="yes"/>
			<point x="371" y="595"/>
			<point x="412" y="567"/>
		</contour>
		<contour>
			<point x="203" y="567" type="curve" smooth="yes"/>
			<point x="248" y="567"/>
			<point x="287" y="595"/>
			<point x="287" y="646" type="curve" smooth="yes"/>
			<point x="287" y="696"/>
			<point x="248" y="725"/>
			<point x="203" y="725" type="curve" smooth="yes"/>
			<point x="160" y="725"/>
			<point x="119" y="696"/>
			<point x="119" y="646" type="curve" smooth="yes"/>
			<point x="119" y="595"/>
			<point x="160" y="567"/>
		</contour>
		<component base="y"/>
	</outline>
</glyph>
<glyph name="Scaron" format="1">
	<unicode hex="0160"/>
	<advance width="553"/>
	<outline>
		<contour>
			<point x="143" y="896" type="line"/>
			<point x="122" y="875" type="line"/>
			<point x="261" y="706" type="line"/>
			<point x="351" y="706" type="line"/>
			<point x="491" y="876" type="line"/>
			<point x="470" y="897" type="line"/>
			<point x="262" y="783" type="line"/>
			<point x="350" y="783" type="line"/>
		</contour>
		<component base="S"/>
	</outline>
</glyph>
<glyph name="Ydieresis" format="1">
	<unicode hex="0178"/>
	<advance width="621"/>
	<outline>
		<contour>
			<point x="245" y="700" type="curve" smooth="yes"/>
			<point x="288" y="700"/>
			<point x="325" y="727"/>
			<point x="325" y="775" type="curve" smooth="yes"/>
			<point x="325" y="823"/>
			<point x="288" y="850"/>
			<point x="245" y="850" type="curve" smooth="yes"/>
			<point x="204" y="850"/>
			<point x="165" y="823"/>
			<point x="165" y="775" type="curve" smooth="yes"/>
			<point x="165" y="727"/>
			<point x="204" y="700"/>
		</contour>
		<contour>
			<point x="505" y="700" type="curve" smooth="yes"/>
			<point x="548" y="700"/>
			<point x="585" y="727"/>
			<point x="585" y="775" type="curve" smooth="yes"/>
			<point x="585" y="823"/>
			<point x="548" y="850"/>
			<point x="505" y="850" type="curve" smooth="yes"/>
			<point x="464" y="850"/>
			<point x="425" y="823"/>
			<point x="425" y="775" type="curve" smooth="yes"/>
			<point x="425" y="727"/>
			<point x="464" y="700"/>
		</contour>
		<component base="Y"/>
	</outline>
</glyph>
<glyph name="zcaron" format="1">
	<unicode hex="017E"/>
	<advance width="468"/>
	<outline>
		<contour>
			<point x="126" y="773" type="line"/>
			<point x="102" y="752" type="line"/>
			<point x="229" y="563" type="line"/>
			<point x="319" y="563" type="line"/>
			<point x="445" y="752" type="line"/>
			<point x="421" y="773" type="line"/>
			<point x="230" y="640" type="line"/>
			<point x="318" y="640" type="line"/>
		</contour>
		<component base="z"/>
	</outline>
</glyph>
<glyph name="circumflex" format="1">
	<unicode hex="02C6"/>
	<advance width="400"/>
	<outline>
		<contour>
			<point x="347" y="553" type="line"/>
			<point x="369" y="575" type="line"/>
			<point x="238" y="757" type="line"/>
			<point x="162" y="757" type="line"/>
			<point x="31" y="575" type="line"/>
			<point x="53" y="553" type="line"/>
			<point x="250" y="679" type="line"/>
			<point x="150" y="679" type="line"/>
		</contour>
	</outline>
</glyph>
<glyph name="caron" format="1">
	<unicode hex="02C7"/>
	<advance width="400"/>
	<outline>
		<contour>
			<point x="52" y="773" type="line"/>
			<point x="28" y="752" type="line"/>
			<point x="155" y="563" type="line"/>
			<point x="245" y="563" type="line"/>
			<point x="371" y="752" type="line"/>
			<point x="347" y="773" type="line"/>
			<point x="156" y="640" type="line"/>
			<point x="244" y="640" type="line"/>
		</contour>
	</outline>
</glyph>
<glyph name="breve" format="1">
	<unicode hex="02D8"/>
	<advance width="400"/>
	<outline>
		<contour>
			<point x="34" y="725" type="line"/>
			<point x="38" y="659"/>
			<point x="76" y="563"/>
			<point x="200" y="563" type="curve" smooth="yes"/>
			<point x="324" y="563"/>
			<point x="362" y="659"/>
			<point x="366" y="725" type="curve"/>
			<point x="340" y="732" type="line"/>
			<point x="322" y="687"/>
			<point x="269" y="653"/>
			<point x="200" y="653" type="curve" smooth="yes"/>
			<point x="131" y="653"/>
			<point x="80" y="684"/>
			<point x="60" y="732" type="curve"/>
		</contour>
	</outline>
</glyph>
<glyph name="ring" format="1">
	<unicode hex="02DA"/>
	<advance width="400"/>
	<outline>
		<contour>
			<point x="200" y="597" type="curve" smooth="yes"/>
			<point x="150" y="597"/>
			<point x="124" y="637"/>
			<point x="124" y="674" type="curve" smooth="yes"/>
			<point x="124" y="714"/>
			<point x="150" y="751"/>
			<point x="200" y="751" type="curve" smooth="yes"/>
			<point x="250" y="751"/>
			<point x="276" y="714"/>
			<point x="276" y="674" type="curve" smooth="yes"/>
			<point x="276" y="637"/>
			<point x="250" y="597"/>
		</contour>
		<contour>
			<point x="200" y="554" type="curve" smooth="yes"/>
			<point x="272" y="554"/>
			<point x="327" y="598"/>
			<point x="327" y="674" type="curve" smooth="yes"/>
			<point x="327" y="750"/>
			<point x="272" y="794"/>
			<point x="200" y="794" type="curve" smooth="yes"/>
			<point x="128" y="794"/>
			<point x="73" y="747"/>
			<point x="73" y="674" type="curve" smooth="yes"/>
			<point x="73" y="601"/>
			<point x="128" y="554"/>
		</contour>
	</outline>
</glyph>
<glyph name="ogonek" format="1">
	<unicode hex="02DB"/>
	<advance width="400"/>
	<outline>
		<contour>
			<point x="69" y="-127" type="curve" smooth="yes"/>
			<point x="69" y="-182"/>
			<point x="110" y="-227"/>
			<point x="187" y="-227" type="curve" smooth="yes"/>
			<point x="244" y="-227"/>
			<point x="297" y="-209"/>
			<point x="331" y="-177" type="curve"/>
			<point x="324" y="-152" type="line"/>
			<point x="310" y="-156"/>
			<point x="295" y="-160"/>
			<point x="269" y="-160" type="curve" smooth="yes"/>
			<point x="220" y="-160"/>
			<point x="185" y="-131"/>
			<point x="185" y="-76" type="curve" smooth="yes"/>
			<point x="185" y="-42"/>
			<point x="202" y="-16"/>
			<point x="234" y="8" type="curve"/>
			<point x="218" y="8" type="line"/>
			<point x="128" y="-28"/>
			<point x="69" y="-65"/>
		</contour>
	</outline>
</glyph>
<glyph name="tilde" format="1">
	<unicode hex="02DC"/>
	<advance width="400"/>
	<outline>
		<contour>
			<point x="23" y="582" type="curve"/>
			<point x="49" y="572" type="line"/>
			<point x="62" y="606"/>
			<point x="86" y="626"/>
			<point x="116" y="626" type="curve" smooth="yes"/>
			<point x="145" y="626"/>
			<point x="170" y="608"/>
			<point x="192" y="594" type="curve" smooth="yes"/>
			<point x="212" y="582"/>
			<point x="234" y="570"/>
			<point x="264" y="570" type="curve" smooth="yes"/>
			<point x="325" y="570"/>
			<point x="369" y="620"/>
			<point x="381" y="720" type="curve"/>
			<point x="355" y="730" type="line"/>
			<point x="342" y="696"/>
			<point x="318" y="676"/>
			<point x="288" y="676" type="curve" smooth="yes"/>
			<point x="259" y="676"/>
			<point x="234" y="694"/>
			<point x="212" y="708" type="curve" smooth="yes"/>
			<point x="192" y="720"/>
			<point x="170" y="732"/>
			<point x="141" y="732" type="curve" smooth="yes"/>
			<point x="81" y="732"/>
			<point x="35" y="679"/>
		</contour>
	</outline>
</glyph>
<glyph name="hungarumlaut" format="1">
	<unicode hex="02DD"/>
	<advance width="400"/>
	<outline>
		<contour>
			<point x="71" y="570" type="line"/>
			<point x="97" y="557" type="line"/>
			<point x="190" y="669" type="line" smooth="yes"/>
			<point x="218" y="702"/>
			<point x="230" y="725"/>
			<point x="230" y="749" type="curve" smooth="yes"/>
			<point x="230" y="781"/>
			<point x="211" y="800"/>
			<point x="181" y="800" type="curve" smooth="yes"/>
			<point x="145" y="800"/>
			<point x="115" y="779"/>
			<point x="101" y="714" type="curve" smooth="yes"/>
		</contour>
		<contour>
			<point x="214" y="572" type="line"/>
			<point x="239" y="557" type="line"/>
			<point x="340" y="662" type="line" smooth="yes"/>
			<point x="370" y="693"/>
			<point x="382" y="716"/>
			<point x="382" y="743" type="curve" smooth="yes"/>
			<point x="382" y="772"/>
			<point x="367" y="794"/>
			<point x="337" y="794" type="curve" smooth="yes"/>
			<point x="304" y="794"/>
			<point x="273" y="777"/>
			<point x="254" y="713" type="curve" smooth="yes"/>
		</contour>
	</outline>
</glyph>
<glyph name="perthousand" format="1">
	<unicode hex="2030"/>
	<advance width="1231"/>
	<outline>
		<contour>
			<point x="158" y="437" type="curve" smooth="yes"/>
			<point x="158" y="581"/>
			<point x="177" y="616"/>
			<point x="205" y="616" type="curve" smooth="yes"/>
			<point x="232" y="616"/>
			<point x="253" y="581"/>
			<point x="253" y="437" type="curve" smooth="yes"/>
			<point x="253" y="294"/>
			<point x="232" y="258"/>
			<point x="205" y="258" type="curve" smooth="yes"/>
			<point x="177" y="258"/>
			<point x="158" y="293"/>
		</contour>
		<contour>
			<point x="205" y="640" type="curve" smooth="yes"/>
			<point x="121" y="640"/>
			<point x="48" y="582"/>
			<point x="48" y="437" type="curve" smooth="yes"/>
			<point x="48" y="292"/>
			<point x="121" y="234"/>
			<point x="205" y="234" type="curve" smooth="yes"/>
			<point x="289" y="234"/>
			<point x="363" y="292"/>
			<point x="363" y="437" type="curve" smooth="yes"/>
			<point x="363" y="582"/>
			<point x="289" y="640"/>
		</contour>
		<contour>
			<point x="628" y="194" type="curve" smooth="yes"/>
			<point x="628" y="338"/>
			<point x="647" y="373"/>
			<point x="675" y="373" type="curve" smooth="yes"/>
			<point x="702" y="373"/>
			<point x="723" y="338"/>
			<point x="723" y="194" type="curve" smooth="yes"/>
			<point x="723" y="51"/>
			<point x="702" y="15"/>
			<point x="675" y="15" type="curve" smooth="yes"/>
			<point x="647" y="15"/>
			<point x="628" y="50"/>
		</contour>
		<contour>
			<point x="675" y="397" type="curve" smooth="yes"/>
			<point x="591" y="397"/>
			<point x="518" y="339"/>
			<point x="518" y="194" type="curve" smooth="yes"/>
			<point x="518" y="49"/>
			<point x="591" y="-9"/>
			<point x="675" y="-9" type="curve" smooth="yes"/>
			<point x="759" y="-9"/>
			<point x="833" y="49"/>
			<point x="833" y="194" type="curve" smooth="yes"/>
			<point x="833" y="339"/>
			<point x="759" y="397"/>
		</contour>
		<contour>
			<point x="989" y="194" type="curve" smooth="yes"/>
			<point x="989" y="338"/>
			<point x="1008" y="373"/>
			<point x="1036" y="373" type="curve" smooth="yes"/>
			<point x="1063" y="373"/>
			<point x="1084" y="338"/>
			<point x="1084" y="194" type="curve" smooth="yes"/>
			<point x="1084" y="51"/>
			<point x="1063" y="15"/>
			<point x="1036" y="15" type="curve" smooth="yes"/>
			<point x="1008" y="15"/>
			<point x="989" y="50"/>
		</contour>
		<contour>
			<point x="1036" y="397" type="curve" smooth="yes"/>
			<point x="952" y="397"/>
			<point x="879" y="339"/>
			<point x="879" y="194" type="curve" smooth="yes"/>
			<point x="879" y="49"/>
			<point x="952" y="-9"/>
			<point x="1036" y="-9" type="curve" smooth="yes"/>
			<point x="1120" y="-9"/>
			<point x="1194" y="49"/>
			<point x="1194" y="194" type="curve" smooth="yes"/>
			<point x="1194" y="339"/>
			<point x="1120" y="397"/>
		</contour>
		<component base="fraction" xOffset="374"/>
	</outline>
</glyph>
